<svg id="visual" viewBox="0 0 960 540" width="960" height="540" xmlns="http://www.w3.org/2000/svg" xmlns:xlink="http://www.w3.org/1999/xlink" version="1.1"><rect x="0" y="0" width="960" height="540" fill="#f2f2f2"></rect><path d="M235 0L234.7 11.3C234.3 22.7 233.7 45.3 243.3 67.8C253 90.3 273 112.7 284.5 135.2C296 157.7 299 180.3 288.5 202.8C278 225.3 254 247.7 252.2 270.2C250.3 292.7 270.7 315.3 277.8 337.8C285 360.3 279 382.7 271.7 405.2C264.3 427.7 255.7 450.3 260.2 472.8C264.7 495.3 282.3 517.7 291.2 528.8L300 540L0 540L0 528.8C0 517.7 0 495.3 0 472.8C0 450.3 0 427.7 0 405.2C0 382.7 0 360.3 0 337.8C0 315.3 0 292.7 0 270.2C0 247.7 0 225.3 0 202.8C0 180.3 0 157.7 0 135.2C0 112.7 0 90.3 0 67.8C0 45.3 0 22.7 0 11.3L0 0Z" fill="#c850c0"></path><path d="M250 0L251.3 11.3C252.7 22.7 255.3 45.3 257.7 67.8C260 90.3 262 112.7 252.3 135.2C242.7 157.7 221.3 180.3 221.2 202.8C221 225.3 242 247.7 249.5 270.2C257 292.7 251 315.3 238.5 337.8C226 360.3 207 382.7 206 405.2C205 427.7 222 450.3 221.7 472.8C221.3 495.3 203.7 517.7 194.8 528.8L186 540L0 540L0 528.8C0 517.7 0 495.3 0 472.8C0 450.3 0 427.7 0 405.2C0 382.7 0 360.3 0 337.8C0 315.3 0 292.7 0 270.2C0 247.7 0 225.3 0 202.8C0 180.3 0 157.7 0 135.2C0 112.7 0 90.3 0 67.8C0 45.3 0 22.7 0 11.3L0 0Z" fill="#ec56a1"></path><path d="M182 0L175.3 11.3C168.7 22.7 155.3 45.3 149.3 67.8C143.3 90.3 144.7 112.7 154.8 135.2C165 157.7 184 180.3 193 202.8C202 225.3 201 247.7 191.2 270.2C181.3 292.7 162.7 315.3 160 337.8C157.3 360.3 170.7 382.7 179.2 405.2C187.7 427.7 191.3 450.3 184.3 472.8C177.3 495.3 159.7 517.7 150.8 528.8L142 540L0 540L0 528.8C0 517.7 0 495.3 0 472.8C0 450.3 0 427.7 0 405.2C0 382.7 0 360.3 0 337.8C0 315.3 0 292.7 0 270.2C0 247.7 0 225.3 0 202.8C0 180.3 0 157.7 0 135.2C0 112.7 0 90.3 0 67.8C0 45.3 0 22.7 0 11.3L0 0Z" fill="#fd6c86"></path><path d="M138 0L138.5 11.3C139 22.7 140 45.3 142.2 67.8C144.3 90.3 147.7 112.7 152.2 135.2C156.7 157.7 162.3 180.3 159.2 202.8C156 225.3 144 247.7 140.7 270.2C137.3 292.7 142.7 315.3 146.7 337.8C150.7 360.3 153.3 382.7 157 405.2C160.7 427.7 165.3 450.3 158.7 472.8C152 495.3 134 517.7 125 528.8L116 540L0 540L0 528.8C0 517.7 0 495.3 0 472.8C0 450.3 0 427.7 0 405.2C0 382.7 0 360.3 0 337.8C0 315.3 0 292.7 0 270.2C0 247.7 0 225.3 0 202.8C0 180.3 0 157.7 0 135.2C0 112.7 0 90.3 0 67.8C0 45.3 0 22.7 0 11.3L0 0Z" fill="#ff8974"></path><path d="M96 0L95.7 11.3C95.3 22.7 94.7 45.3 92.5 67.8C90.3 90.3 86.7 112.7 83.7 135.2C80.7 157.7 78.3 180.3 80.3 202.8C82.3 225.3 88.7 247.7 95.7 270.2C102.7 292.7 110.3 315.3 106.2 337.8C102 360.3 86 382.7 83.3 405.2C80.7 427.7 91.3 450.3 97 472.8C102.7 495.3 103.3 517.7 103.7 528.8L104 540L0 540L0 528.8C0 517.7 0 495.3 0 472.8C0 450.3 0 427.7 0 405.2C0 382.7 0 360.3 0 337.8C0 315.3 0 292.7 0 270.2C0 247.7 0 225.3 0 202.8C0 180.3 0 157.7 0 135.2C0 112.7 0 90.3 0 67.8C0 45.3 0 22.7 0 11.3L0 0Z" fill="#ffaa6b"></path><path d="M51 0L54.2 11.3C57.3 22.7 63.7 45.3 61.5 67.8C59.3 90.3 48.7 112.7 45.2 135.2C41.7 157.7 45.3 180.3 45.2 202.8C45 225.3 41 247.7 40.3 270.2C39.7 292.7 42.3 315.3 47.5 337.8C52.7 360.3 60.3 382.7 60.7 405.2C61 427.7 54 450.3 54.2 472.8C54.3 495.3 61.7 517.7 65.3 528.8L69 540L0 540L0 528.8C0 517.7 0 495.3 0 472.8C0 450.3 0 427.7 0 405.2C0 382.7 0 360.3 0 337.8C0 315.3 0 292.7 0 270.2C0 247.7 0 225.3 0 202.8C0 180.3 0 157.7 0 135.2C0 112.7 0 90.3 0 67.8C0 45.3 0 22.7 0 11.3L0 0Z" fill="#ffcc70"></path></svg>